<svg width="24" height="33" viewBox="0 0 24 33" fill="none" xmlns="http://www.w3.org/2000/svg">
<path d="M10.5 31.0172C10.5 31.8456 11.1716 32.5172 12 32.5172C12.8284 32.5172 13.5 31.8456 13.5 31.0172H10.5ZM13.0607 0.939315C12.4749 0.353529 11.5251 0.353529 10.9393 0.939315L1.3934 10.4853C0.807612 11.071 0.807612 12.0208 1.3934 12.6066C1.97918 13.1924 2.92893 13.1924 3.51472 12.6066L12 4.1213L20.4853 12.6066C21.0711 13.1924 22.0208 13.1924 22.6066 12.6066C23.1924 12.0208 23.1924 11.071 22.6066 10.4853L13.0607 0.939315ZM13.5 31.0172L13.5 1.99998H10.5L10.5 31.0172H13.5Z" fill="black"/>
</svg>
