<svg width="29" height="25" viewBox="0 0 29 25" fill="none" xmlns="http://www.w3.org/2000/svg">
<path d="M26.7917 10.4583H6.375L13.0921 3.74125C13.2834 3.55145 13.4353 3.32564 13.539 3.07684C13.6426 2.82805 13.696 2.56119 13.696 2.29167C13.696 2.02214 13.6426 1.75529 13.539 1.50649C13.4353 1.25769 13.2834 1.03188 13.0921 0.842084C12.7096 0.461822 12.1921 0.248383 11.6527 0.248383C11.1133 0.248383 10.5959 0.461822 10.2133 0.842084L1.45458 9.62125C0.687759 10.3835 0.254559 11.4188 0.25 12.5C0.259936 13.5741 0.692724 14.6011 1.45458 15.3583L10.2133 24.1375C10.4037 24.3265 10.6294 24.4762 10.8776 24.578C11.1258 24.6798 11.3917 24.7317 11.6599 24.7307C11.9282 24.7298 12.1936 24.676 12.4411 24.5725C12.6886 24.4689 12.9133 24.3177 13.1023 24.1273C13.2913 23.9369 13.441 23.7112 13.5428 23.463C13.6446 23.2148 13.6965 22.949 13.6955 22.6807C13.6946 22.4124 13.6408 22.147 13.5372 21.8995C13.4337 21.652 13.2824 21.4274 13.0921 21.2383L6.375 14.5417H26.7917C27.3332 14.5417 27.8525 14.3266 28.2353 13.9437C28.6182 13.5608 28.8333 13.0415 28.8333 12.5C28.8333 11.9585 28.6182 11.4392 28.2353 11.0563C27.8525 10.6734 27.3332 10.4583 26.7917 10.4583Z" fill="#FF725C"/>
</svg>
