<svg width="32" height="34" viewBox="0 0 32 34" fill="none" xmlns="http://www.w3.org/2000/svg">
<g filter="url(#filter0_d_165_487)">
<path d="M25.7075 24.2926C25.8004 24.3855 25.8741 24.4958 25.9244 24.6172C25.9747 24.7386 26.0006 24.8687 26.0006 25.0001C26.0006 25.1315 25.9747 25.2616 25.9244 25.383C25.8741 25.5044 25.8004 25.6147 25.7075 25.7076C25.6146 25.8005 25.5043 25.8742 25.3829 25.9245C25.2615 25.9747 25.1314 26.0006 25 26.0006C24.8686 26.0006 24.7385 25.9747 24.6171 25.9245C24.4957 25.8742 24.3854 25.8005 24.2925 25.7076L16 17.4138L7.70751 25.7076C7.51987 25.8952 7.26537 26.0006 7.00001 26.0006C6.73464 26.0006 6.48015 25.8952 6.29251 25.7076C6.10487 25.5199 5.99945 25.2654 5.99945 25.0001C5.99945 24.7347 6.10487 24.4802 6.29251 24.2926L14.5863 16.0001L6.29251 7.70757C6.10487 7.51993 5.99945 7.26543 5.99945 7.00007C5.99945 6.7347 6.10487 6.48021 6.29251 6.29257C6.48015 6.10493 6.73464 5.99951 7.00001 5.99951C7.26537 5.99951 7.51987 6.10493 7.70751 6.29257L16 14.5863L24.2925 6.29257C24.4801 6.10493 24.7346 5.99951 25 5.99951C25.2654 5.99951 25.5199 6.10493 25.7075 6.29257C25.8951 6.48021 26.0006 6.7347 26.0006 7.00007C26.0006 7.26543 25.8951 7.51993 25.7075 7.70757L17.4138 16.0001L25.7075 24.2926Z" fill="#FF725C"/>
</g>
<defs>
<filter id="filter0_d_165_487" x="-4" y="0" width="40" height="40" filterUnits="userSpaceOnUse" color-interpolation-filters="sRGB">
<feFlood flood-opacity="0" result="BackgroundImageFix"/>
<feColorMatrix in="SourceAlpha" type="matrix" values="0 0 0 0 0 0 0 0 0 0 0 0 0 0 0 0 0 0 127 0" result="hardAlpha"/>
<feOffset dy="4"/>
<feGaussianBlur stdDeviation="2"/>
<feComposite in2="hardAlpha" operator="out"/>
<feColorMatrix type="matrix" values="0 0 0 0 0 0 0 0 0 0 0 0 0 0 0 0 0 0 0.25 0"/>
<feBlend mode="normal" in2="BackgroundImageFix" result="effect1_dropShadow_165_487"/>
<feBlend mode="normal" in="SourceGraphic" in2="effect1_dropShadow_165_487" result="shape"/>
</filter>
</defs>
</svg>
