<svg width="26" height="25" viewBox="0 0 26 25" fill="none" xmlns="http://www.w3.org/2000/svg">
<g clip-path="url(#clip0_77_192)">
<path d="M24.9167 11.4585H1.08333C0.485025 11.4585 0 11.9249 0 12.5002C0 13.0755 0.485025 13.5418 1.08333 13.5418H24.9167C25.515 13.5418 26 13.0755 26 12.5002C26 11.9249 25.515 11.4585 24.9167 11.4585Z" fill="#FF725C"/>
<path d="M24.9167 4.1665H1.08333C0.485025 4.1665 0 4.63287 0 5.20817C0 5.78347 0.485025 6.24984 1.08333 6.24984H24.9167C25.515 6.24984 26 5.78347 26 5.20817C26 4.63287 25.515 4.1665 24.9167 4.1665Z" fill="#FF725C"/>
<path d="M24.9167 18.75H1.08333C0.485025 18.75 0 19.2164 0 19.7917C0 20.367 0.485025 20.8333 1.08333 20.8333H24.9167C25.515 20.8333 26 20.367 26 19.7917C26 19.2164 25.515 18.75 24.9167 18.75Z" fill="#FF725C"/>
</g>
<defs>
<clipPath id="clip0_77_192">
<rect width="26" height="25" fill="white"/>
</clipPath>
</defs>
</svg>
