<svg width="20" height="25" viewBox="0 0 20 25" fill="none" xmlns="http://www.w3.org/2000/svg">
<path fill-rule="evenodd" clip-rule="evenodd" d="M0.933096 1.21951C1.21568 1.05959 1.53517 0.979104 1.85861 0.986368C2.18136 0.993615 2.49638 1.08798 2.77131 1.25973C2.77189 1.2601 2.77248 1.26046 2.77306 1.26083L19.1195 11.4107C19.3868 11.5728 19.6083 11.8022 19.7626 12.0768C19.9182 12.3538 20 12.6671 20 12.9859C20 13.3047 19.9182 13.6181 19.7626 13.895C19.6083 14.1696 19.3868 14.3991 19.1195 14.5611L2.77306 24.711C2.77238 24.7114 2.7717 24.7119 2.77103 24.7123C2.49616 24.8839 2.18125 24.9782 1.85861 24.9855C1.53517 24.9927 1.21568 24.9122 0.933096 24.7523C0.65051 24.5924 0.415063 24.3588 0.251039 24.0757C0.0870152 23.7926 0.000356479 23.4701 0 23.1416V2.83019C0.000356479 2.50171 0.0870152 2.17928 0.251039 1.89614C0.415063 1.61301 0.65051 1.37943 0.933096 1.21951ZM18.65 12.2012L18.1811 12.9797L18.187 12.9761C18.1854 12.9771 18.184 12.9785 18.1831 12.9802C18.1821 12.9819 18.1816 12.9839 18.1816 12.9859C18.1816 12.9879 18.1821 12.9899 18.1831 12.9916C18.1841 12.9934 18.1855 12.9948 18.1872 12.9958L18.65 12.2012ZM18.171 12.9859L1.8184 2.83224L1.8184 23.1396L1.82139 23.1377L18.171 12.9859Z" fill="#E1E1E6"/>
</svg>
