<svg width="207" height="36" viewBox="0 0 207 36" fill="none" xmlns="http://www.w3.org/2000/svg">
<path d="M3.816 35C2.824 35 2.056 34.728 1.512 34.184C0.968 33.608 0.696 32.824 0.696 31.832V4.136C0.696 3.112 0.952 2.344 1.464 1.832C2.008 1.288 2.776 1.016 3.768 1.016C4.76 1.016 5.512 1.288 6.024 1.832C6.568 2.344 6.84 3.112 6.84 4.136V29.768H20.76C21.624 29.768 22.28 29.992 22.728 30.44C23.208 30.888 23.448 31.528 23.448 32.36C23.448 33.192 23.208 33.848 22.728 34.328C22.28 34.776 21.624 35 20.76 35H3.816ZM34.8011 35.48C33.1051 35.48 31.5851 35.16 30.2411 34.52C28.9291 33.848 27.8891 32.952 27.1211 31.832C26.3851 30.712 26.0171 29.448 26.0171 28.04C26.0171 26.312 26.4651 24.952 27.3611 23.96C28.2571 22.936 29.7131 22.2 31.7291 21.752C33.7451 21.304 36.4491 21.08 39.8411 21.08H42.2411V24.536H39.8891C37.9051 24.536 36.3211 24.632 35.1371 24.824C33.9531 25.016 33.1051 25.352 32.5931 25.832C32.1131 26.28 31.8731 26.92 31.8731 27.752C31.8731 28.808 32.2411 29.672 32.9771 30.344C33.7131 31.016 34.7371 31.352 36.0491 31.352C37.1051 31.352 38.0331 31.112 38.8331 30.632C39.6651 30.12 40.3211 29.432 40.8011 28.568C41.2811 27.704 41.5211 26.712 41.5211 25.592V20.072C41.5211 18.472 41.1691 17.32 40.4651 16.616C39.7611 15.912 38.5771 15.56 36.9131 15.56C35.9851 15.56 34.9771 15.672 33.8891 15.896C32.8331 16.12 31.7131 16.504 30.5291 17.048C29.9211 17.336 29.3771 17.416 28.8971 17.288C28.4491 17.16 28.0971 16.904 27.8411 16.52C27.5851 16.104 27.4571 15.656 27.4571 15.176C27.4571 14.696 27.5851 14.232 27.8411 13.784C28.0971 13.304 28.5291 12.952 29.1371 12.728C30.6091 12.12 32.0171 11.688 33.3611 11.432C34.7371 11.176 35.9851 11.048 37.1051 11.048C39.4091 11.048 41.2971 11.4 42.7691 12.104C44.2731 12.808 45.3931 13.88 46.1291 15.32C46.8651 16.728 47.2331 18.552 47.2331 20.792V32.312C47.2331 33.304 46.9931 34.072 46.5131 34.616C46.0331 35.128 45.3451 35.384 44.4491 35.384C43.5531 35.384 42.8491 35.128 42.3371 34.616C41.8571 34.072 41.6171 33.304 41.6171 32.312V30.008H42.0011C41.7771 31.128 41.3291 32.104 40.6571 32.936C40.0171 33.736 39.2011 34.36 38.2091 34.808C37.2171 35.256 36.0811 35.48 34.8011 35.48ZM66.8591 35.48C64.8751 35.48 63.1311 34.984 61.6271 33.992C60.1551 33 59.1791 31.672 58.6991 30.008L59.2271 28.808V32.312C59.2271 33.304 58.9711 34.072 58.4591 34.616C57.9471 35.128 57.2271 35.384 56.2991 35.384C55.3391 35.384 54.6031 35.128 54.0911 34.616C53.5791 34.072 53.3231 33.304 53.3231 32.312V3.8C53.3231 2.808 53.5791 2.056 54.0911 1.544C54.6031 1.032 55.3391 0.775997 56.2991 0.775997C57.2591 0.775997 57.9951 1.032 58.5071 1.544C59.0511 2.056 59.3231 2.808 59.3231 3.8V16.28H58.7471C59.2591 14.712 60.2511 13.448 61.7231 12.488C63.1951 11.528 64.9071 11.048 66.8591 11.048C68.9391 11.048 70.7471 11.544 72.2831 12.536C73.8191 13.528 75.0191 14.936 75.8831 16.76C76.7471 18.552 77.1791 20.712 77.1791 23.24C77.1791 25.736 76.7471 27.912 75.8831 29.768C75.0191 31.592 73.8031 33 72.2351 33.992C70.6991 34.984 68.9071 35.48 66.8591 35.48ZM65.1791 30.92C66.3631 30.92 67.4031 30.632 68.2991 30.056C69.1951 29.48 69.8831 28.632 70.3631 27.512C70.8751 26.36 71.1311 24.936 71.1311 23.24C71.1311 20.68 70.5871 18.776 69.4991 17.528C68.4111 16.248 66.9711 15.608 65.1791 15.608C63.9951 15.608 62.9551 15.896 62.0591 16.472C61.1631 17.016 60.4591 17.864 59.9471 19.016C59.4671 20.136 59.2271 21.544 59.2271 23.24C59.2271 25.768 59.7711 27.688 60.8591 29C61.9471 30.28 63.3871 30.92 65.1791 30.92ZM92.8084 35.48C90.3764 35.48 88.2644 34.984 86.4724 33.992C84.6804 33 83.2884 31.592 82.2964 29.768C81.3044 27.912 80.8084 25.736 80.8084 23.24C80.8084 21.352 81.0804 19.672 81.6244 18.2C82.2004 16.696 83.0164 15.416 84.0724 14.36C85.1284 13.272 86.3924 12.456 87.8644 11.912C89.3364 11.336 90.9844 11.048 92.8084 11.048C95.2404 11.048 97.3524 11.544 99.1444 12.536C100.936 13.528 102.328 14.936 103.32 16.76C104.312 18.584 104.808 20.744 104.808 23.24C104.808 25.128 104.52 26.824 103.944 28.328C103.4 29.832 102.6 31.128 101.544 32.216C100.488 33.272 99.2244 34.088 97.7524 34.664C96.2804 35.208 94.6324 35.48 92.8084 35.48ZM92.8084 30.92C93.9924 30.92 95.0324 30.632 95.9284 30.056C96.8244 29.48 97.5124 28.632 97.9924 27.512C98.5044 26.36 98.7604 24.936 98.7604 23.24C98.7604 20.68 98.2164 18.776 97.1284 17.528C96.0404 16.248 94.6004 15.608 92.8084 15.608C91.6244 15.608 90.5844 15.896 89.6884 16.472C88.7924 17.016 88.0884 17.864 87.5764 19.016C87.0964 20.136 86.8564 21.544 86.8564 23.24C86.8564 25.768 87.4004 27.688 88.4884 29C89.5764 30.28 91.0164 30.92 92.8084 30.92ZM121.569 35.384C120.577 35.384 119.809 35.112 119.265 34.568C118.753 33.992 118.497 33.208 118.497 32.216V6.296H109.137C108.305 6.296 107.649 6.072 107.169 5.624C106.721 5.144 106.497 4.504 106.497 3.704C106.497 2.872 106.721 2.248 107.169 1.832C107.649 1.384 108.305 1.16 109.137 1.16H134.001C134.833 1.16 135.473 1.384 135.921 1.832C136.401 2.248 136.641 2.872 136.641 3.704C136.641 4.504 136.401 5.144 135.921 5.624C135.473 6.072 134.833 6.296 134.001 6.296H124.641V32.216C124.641 33.208 124.385 33.992 123.873 34.568C123.361 35.112 122.593 35.384 121.569 35.384ZM147.391 35.48C144.735 35.48 142.447 34.984 140.527 33.992C138.607 33 137.119 31.592 136.063 29.768C135.039 27.944 134.527 25.784 134.527 23.288C134.527 20.856 135.023 18.728 136.015 16.904C137.039 15.08 138.431 13.656 140.191 12.632C141.983 11.576 144.015 11.048 146.287 11.048C147.951 11.048 149.439 11.32 150.751 11.864C152.095 12.408 153.231 13.192 154.159 14.216C155.119 15.24 155.839 16.488 156.319 17.96C156.831 19.4 157.087 21.032 157.087 22.856C157.087 23.432 156.879 23.88 156.463 24.2C156.079 24.488 155.519 24.632 154.783 24.632H139.375V21.176H152.863L152.095 21.896C152.095 20.424 151.871 19.192 151.423 18.2C151.007 17.208 150.383 16.456 149.551 15.944C148.751 15.4 147.743 15.128 146.527 15.128C145.183 15.128 144.031 15.448 143.071 16.088C142.143 16.696 141.423 17.576 140.911 18.728C140.431 19.848 140.191 21.192 140.191 22.76V23.096C140.191 25.72 140.799 27.688 142.015 29C143.263 30.28 145.087 30.92 147.487 30.92C148.319 30.92 149.247 30.824 150.271 30.632C151.327 30.408 152.319 30.04 153.247 29.528C153.919 29.144 154.511 28.984 155.023 29.048C155.535 29.08 155.935 29.256 156.223 29.576C156.543 29.896 156.735 30.296 156.799 30.776C156.863 31.224 156.767 31.688 156.511 32.168C156.287 32.648 155.887 33.064 155.311 33.416C154.191 34.12 152.895 34.648 151.423 35C149.983 35.32 148.639 35.48 147.391 35.48ZM172.687 35.48C170.223 35.48 168.079 34.984 166.255 33.992C164.431 32.968 163.023 31.528 162.031 29.672C161.039 27.816 160.543 25.64 160.543 23.144C160.543 21.256 160.815 19.576 161.359 18.104C161.935 16.6 162.751 15.336 163.807 14.312C164.863 13.256 166.143 12.456 167.647 11.912C169.151 11.336 170.831 11.048 172.687 11.048C173.743 11.048 174.879 11.192 176.095 11.48C177.343 11.768 178.511 12.248 179.599 12.92C180.111 13.24 180.447 13.624 180.607 14.072C180.767 14.52 180.799 14.984 180.703 15.464C180.607 15.912 180.399 16.312 180.079 16.664C179.791 16.984 179.423 17.192 178.975 17.288C178.527 17.352 178.031 17.24 177.487 16.952C176.783 16.536 176.063 16.232 175.327 16.04C174.591 15.816 173.887 15.704 173.215 15.704C172.159 15.704 171.231 15.88 170.431 16.232C169.631 16.552 168.943 17.032 168.367 17.672C167.823 18.28 167.407 19.048 167.119 19.976C166.831 20.904 166.687 21.976 166.687 23.192C166.687 25.56 167.247 27.432 168.367 28.808C169.519 30.152 171.135 30.824 173.215 30.824C173.887 30.824 174.575 30.728 175.279 30.536C176.015 30.344 176.751 30.04 177.487 29.624C178.031 29.336 178.511 29.24 178.927 29.336C179.375 29.432 179.743 29.656 180.031 30.008C180.319 30.328 180.495 30.728 180.559 31.208C180.623 31.656 180.559 32.104 180.367 32.552C180.207 33 179.887 33.368 179.407 33.656C178.351 34.296 177.231 34.76 176.047 35.048C174.863 35.336 173.743 35.48 172.687 35.48ZM187.455 35.384C186.495 35.384 185.759 35.128 185.247 34.616C184.735 34.072 184.479 33.304 184.479 32.312V3.8C184.479 2.808 184.735 2.056 185.247 1.544C185.759 1.032 186.495 0.775997 187.455 0.775997C188.415 0.775997 189.151 1.032 189.663 1.544C190.207 2.056 190.479 2.808 190.479 3.8V16.232H189.807C190.511 14.536 191.599 13.256 193.071 12.392C194.575 11.496 196.271 11.048 198.159 11.048C200.047 11.048 201.599 11.4 202.815 12.104C204.031 12.808 204.943 13.88 205.551 15.32C206.159 16.728 206.463 18.52 206.463 20.696V32.312C206.463 33.304 206.207 34.072 205.695 34.616C205.183 35.128 204.447 35.384 203.487 35.384C202.527 35.384 201.775 35.128 201.231 34.616C200.719 34.072 200.463 33.304 200.463 32.312V20.984C200.463 19.16 200.111 17.832 199.407 17C198.735 16.168 197.679 15.752 196.239 15.752C194.479 15.752 193.071 16.312 192.015 17.432C190.991 18.52 190.479 19.976 190.479 21.8V32.312C190.479 34.36 189.471 35.384 187.455 35.384Z" fill="#FF725C"/>
</svg>
